<svg xmlns="http://www.w3.org/2000/svg" viewBox="0 0 800 450" width="100%" height="100%">
  <defs>
    <linearGradient id="p2Bg" x1="0%" y1="0%" x2="100%" y2="100%">
      <stop offset="0%" stop-color="#0f172a" />
      <stop offset="50%" stop-color="#022c22" />
      <stop offset="100%" stop-color="#064e3b" />
    </linearGradient>
    <linearGradient id="p2Accent" x1="0%" y1="0%" x2="100%" y2="100%">
      <stop offset="0%" stop-color="#10b981" />
      <stop offset="100%" stop-color="#3b82f6" />
    </linearGradient>
  </defs>

  <!-- Background -->
  <rect width="800" height="450" fill="url(#p2Bg)" />

  <!-- Window Frame -->
  <rect x="120" y="60" width="560" height="310" rx="12" fill="#0f172a" stroke="#1e293b" stroke-width="2" />
  
  <!-- Window Header -->
  <path d="M120 72 Q120 60 132 60 L668 60 Q680 60 680 72 L680 95 L120 95 Z" fill="#1e293b" />
  <circle cx="145" cy="78" r="5" fill="#ef4444" />
  <circle cx="160" cy="78" r="5" fill="#f59e0b" />
  <circle cx="175" cy="78" r="5" fill="#10b981" />

  <!-- Dashboard Cards & Charts Mockup -->
  <!-- Left Side Bar -->
  <rect x="140" y="115" width="110" height="235" rx="6" fill="#1e293b" opacity="0.6" />
  <rect x="155" y="135" width="80" height="12" rx="4" fill="#334155" />
  <rect x="155" y="160" width="60" height="10" rx="4" fill="#334155" />
  <rect x="155" y="180" width="70" height="10" rx="4" fill="#334155" />

  <!-- Main Analytics Area -->
  <rect x="270" y="115" width="390" height="110" rx="8" fill="#182030" stroke="#334155" stroke-width="1" />
  <!-- Wave Graph -->
  <path d="M290 190 Q340 140 390 170 T490 130 T590 160 L630 180" fill="none" stroke="url(#p2Accent)" stroke-width="3.5" stroke-linecap="round" />

  <!-- Bottom Metric Cards -->
  <rect x="270" y="240" width="120" height="110" rx="8" fill="#182030" stroke="#334155" stroke-width="1" />
  <rect x="285" y="255" width="50" height="8" rx="3" fill="#64748b" />
  <text x="285" y="295" fill="#10b981" font-family="'Inter', sans-serif" font-weight="800" font-size="22">+99.8%</text>

  <rect x="405" y="240" width="120" height="110" rx="8" fill="#182030" stroke="#334155" stroke-width="1" />
  <rect x="420" y="255" width="60" height="8" rx="3" fill="#64748b" />
  <text x="420" y="295" fill="#38bdf8" font-family="'Inter', sans-serif" font-weight="800" font-size="22">12.4k</text>

  <rect x="540" y="240" width="120" height="110" rx="8" fill="#182030" stroke="#334155" stroke-width="1" />
  <rect x="555" y="255" width="45" height="8" rx="3" fill="#64748b" />
  <text x="555" y="295" fill="#a855f7" font-family="'Inter', sans-serif" font-weight="800" font-size="22">&lt;15ms</text>
</svg>
